<svg xmlns="http://www.w3.org/2000/svg" version="1.1" xmlns:xlink="http://www.w3.org/1999/xlink" xmlns:svgjs="http://svgjs.dev/svgjs" width="1980" height="1080" preserveAspectRatio="none" viewBox="0 0 1980 1080"><g mask="url(&quot;#SvgjsMask1134&quot;)" fill="none"><rect width="1980" height="1080" x="0" y="0" fill="rgba(215, 77, 89, 1)"></rect><path d="M119.2 961.66L206.67 1012.16L206.67 1113.16L119.2 1163.66L31.73 1113.16L31.73 1012.16zM294.14 52.66L381.61 103.16L381.61 204.16L294.14 254.66L206.67 204.16L206.67 103.16zM206.67 507.16L294.14 557.66L294.14 658.66L206.67 709.16L119.2 658.66L119.2 557.66zM381.61 -98.84L469.09 -48.34L469.09 52.66L381.61 103.16L294.14 52.66L294.14 -48.34zM469.09 52.66L556.56 103.16L556.56 204.16L469.09 254.66L381.61 204.16L381.61 103.16zM381.61 204.16L469.09 254.66L469.09 355.66L381.61 406.16L294.14 355.66L294.14 254.66zM469.09 355.66L556.56 406.16L556.56 507.16L469.09 557.66L381.61 507.16L381.61 406.16zM381.61 507.16L469.09 557.66L469.09 658.66L381.61 709.16L294.14 658.66L294.14 557.66zM731.5 204.16L818.97 254.66L818.97 355.66L731.5 406.16L644.03 355.66L644.03 254.66zM818.97 355.66L906.44 406.16L906.44 507.16L818.97 557.66L731.5 507.16L731.5 406.16zM731.5 810.16L818.97 860.66L818.97 961.66L731.5 1012.16L644.03 961.66L644.03 860.66zM906.44 204.16L993.91 254.66L993.91 355.66L906.44 406.16L818.97 355.66L818.97 254.66zM1343.8 355.66L1431.27 406.16L1431.27 507.16L1343.8 557.66L1256.32 507.16L1256.32 406.16zM1256.32 507.16L1343.8 557.66L1343.8 658.66L1256.32 709.16L1168.85 658.66L1168.85 557.66zM1343.8 658.66L1431.27 709.16L1431.27 810.16L1343.8 860.66L1256.32 810.16L1256.32 709.16zM1518.74 658.66L1606.21 709.16L1606.21 810.16L1518.74 860.66L1431.27 810.16L1431.27 709.16zM1518.74 961.66L1606.21 1012.16L1606.21 1113.16L1518.74 1163.66L1431.27 1113.16L1431.27 1012.16zM1606.21 810.16L1693.68 860.66L1693.68 961.66L1606.21 1012.16L1518.74 961.66L1518.74 860.66zM1868.62 658.66L1956.09 709.16L1956.09 810.16L1868.62 860.66L1781.15 810.16L1781.15 709.16zM2043.56 355.66L2131.04 406.16L2131.04 507.16L2043.56 557.66L1956.09 507.16L1956.09 406.16zM2043.56 658.66L2131.04 709.16L2131.04 810.16L2043.56 860.66L1956.09 810.16L1956.09 709.16z" stroke="rgba(166, 166, 166, 1)" stroke-width="2"></path><path d="M109.1 961.66 a10.1 10.1 0 1 0 20.2 0 a10.1 10.1 0 1 0 -20.2 0zM196.57 1012.16 a10.1 10.1 0 1 0 20.2 0 a10.1 10.1 0 1 0 -20.2 0zM196.57 1113.16 a10.1 10.1 0 1 0 20.2 0 a10.1 10.1 0 1 0 -20.2 0zM109.1 1163.66 a10.1 10.1 0 1 0 20.2 0 a10.1 10.1 0 1 0 -20.2 0zM21.63 1113.16 a10.1 10.1 0 1 0 20.2 0 a10.1 10.1 0 1 0 -20.2 0zM21.63 1012.16 a10.1 10.1 0 1 0 20.2 0 a10.1 10.1 0 1 0 -20.2 0zM284.04 52.66 a10.1 10.1 0 1 0 20.2 0 a10.1 10.1 0 1 0 -20.2 0zM371.51 103.16 a10.1 10.1 0 1 0 20.2 0 a10.1 10.1 0 1 0 -20.2 0zM371.51 204.16 a10.1 10.1 0 1 0 20.2 0 a10.1 10.1 0 1 0 -20.2 0zM284.04 254.66 a10.1 10.1 0 1 0 20.2 0 a10.1 10.1 0 1 0 -20.2 0zM196.57 204.16 a10.1 10.1 0 1 0 20.2 0 a10.1 10.1 0 1 0 -20.2 0zM196.57 103.16 a10.1 10.1 0 1 0 20.2 0 a10.1 10.1 0 1 0 -20.2 0zM196.57 507.16 a10.1 10.1 0 1 0 20.2 0 a10.1 10.1 0 1 0 -20.2 0zM284.04 557.66 a10.1 10.1 0 1 0 20.2 0 a10.1 10.1 0 1 0 -20.2 0zM284.04 658.66 a10.1 10.1 0 1 0 20.2 0 a10.1 10.1 0 1 0 -20.2 0zM196.57 709.16 a10.1 10.1 0 1 0 20.2 0 a10.1 10.1 0 1 0 -20.2 0zM109.1 658.66 a10.1 10.1 0 1 0 20.2 0 a10.1 10.1 0 1 0 -20.2 0zM109.1 557.66 a10.1 10.1 0 1 0 20.2 0 a10.1 10.1 0 1 0 -20.2 0zM371.51 -98.84 a10.1 10.1 0 1 0 20.2 0 a10.1 10.1 0 1 0 -20.2 0zM458.99 -48.34 a10.1 10.1 0 1 0 20.2 0 a10.1 10.1 0 1 0 -20.2 0zM458.99 52.66 a10.1 10.1 0 1 0 20.2 0 a10.1 10.1 0 1 0 -20.2 0zM284.04 -48.34 a10.1 10.1 0 1 0 20.2 0 a10.1 10.1 0 1 0 -20.2 0zM546.46 103.16 a10.1 10.1 0 1 0 20.2 0 a10.1 10.1 0 1 0 -20.2 0zM546.46 204.16 a10.1 10.1 0 1 0 20.2 0 a10.1 10.1 0 1 0 -20.2 0zM458.99 254.66 a10.1 10.1 0 1 0 20.2 0 a10.1 10.1 0 1 0 -20.2 0zM458.99 355.66 a10.1 10.1 0 1 0 20.2 0 a10.1 10.1 0 1 0 -20.2 0zM371.51 406.16 a10.1 10.1 0 1 0 20.2 0 a10.1 10.1 0 1 0 -20.2 0zM284.04 355.66 a10.1 10.1 0 1 0 20.2 0 a10.1 10.1 0 1 0 -20.2 0zM546.46 406.16 a10.1 10.1 0 1 0 20.2 0 a10.1 10.1 0 1 0 -20.2 0zM546.46 507.16 a10.1 10.1 0 1 0 20.2 0 a10.1 10.1 0 1 0 -20.2 0zM458.99 557.66 a10.1 10.1 0 1 0 20.2 0 a10.1 10.1 0 1 0 -20.2 0zM371.51 507.16 a10.1 10.1 0 1 0 20.2 0 a10.1 10.1 0 1 0 -20.2 0zM458.99 658.66 a10.1 10.1 0 1 0 20.2 0 a10.1 10.1 0 1 0 -20.2 0zM371.51 709.16 a10.1 10.1 0 1 0 20.2 0 a10.1 10.1 0 1 0 -20.2 0zM721.4 204.16 a10.1 10.1 0 1 0 20.2 0 a10.1 10.1 0 1 0 -20.2 0zM808.87 254.66 a10.1 10.1 0 1 0 20.2 0 a10.1 10.1 0 1 0 -20.2 0zM808.87 355.66 a10.1 10.1 0 1 0 20.2 0 a10.1 10.1 0 1 0 -20.2 0zM721.4 406.16 a10.1 10.1 0 1 0 20.2 0 a10.1 10.1 0 1 0 -20.2 0zM633.93 355.66 a10.1 10.1 0 1 0 20.2 0 a10.1 10.1 0 1 0 -20.2 0zM633.93 254.66 a10.1 10.1 0 1 0 20.2 0 a10.1 10.1 0 1 0 -20.2 0zM896.34 406.16 a10.1 10.1 0 1 0 20.2 0 a10.1 10.1 0 1 0 -20.2 0zM896.34 507.16 a10.1 10.1 0 1 0 20.2 0 a10.1 10.1 0 1 0 -20.2 0zM808.87 557.66 a10.1 10.1 0 1 0 20.2 0 a10.1 10.1 0 1 0 -20.2 0zM721.4 507.16 a10.1 10.1 0 1 0 20.2 0 a10.1 10.1 0 1 0 -20.2 0zM721.4 810.16 a10.1 10.1 0 1 0 20.2 0 a10.1 10.1 0 1 0 -20.2 0zM808.87 860.66 a10.1 10.1 0 1 0 20.2 0 a10.1 10.1 0 1 0 -20.2 0zM808.87 961.66 a10.1 10.1 0 1 0 20.2 0 a10.1 10.1 0 1 0 -20.2 0zM721.4 1012.16 a10.1 10.1 0 1 0 20.2 0 a10.1 10.1 0 1 0 -20.2 0zM633.93 961.66 a10.1 10.1 0 1 0 20.2 0 a10.1 10.1 0 1 0 -20.2 0zM633.93 860.66 a10.1 10.1 0 1 0 20.2 0 a10.1 10.1 0 1 0 -20.2 0zM896.34 204.16 a10.1 10.1 0 1 0 20.2 0 a10.1 10.1 0 1 0 -20.2 0zM983.81 254.66 a10.1 10.1 0 1 0 20.2 0 a10.1 10.1 0 1 0 -20.2 0zM983.81 355.66 a10.1 10.1 0 1 0 20.2 0 a10.1 10.1 0 1 0 -20.2 0zM1333.7 355.66 a10.1 10.1 0 1 0 20.2 0 a10.1 10.1 0 1 0 -20.2 0zM1421.17 406.16 a10.1 10.1 0 1 0 20.2 0 a10.1 10.1 0 1 0 -20.2 0zM1421.17 507.16 a10.1 10.1 0 1 0 20.2 0 a10.1 10.1 0 1 0 -20.2 0zM1333.7 557.66 a10.1 10.1 0 1 0 20.2 0 a10.1 10.1 0 1 0 -20.2 0zM1246.22 507.16 a10.1 10.1 0 1 0 20.2 0 a10.1 10.1 0 1 0 -20.2 0zM1246.22 406.16 a10.1 10.1 0 1 0 20.2 0 a10.1 10.1 0 1 0 -20.2 0zM1333.7 658.66 a10.1 10.1 0 1 0 20.2 0 a10.1 10.1 0 1 0 -20.2 0zM1246.22 709.16 a10.1 10.1 0 1 0 20.2 0 a10.1 10.1 0 1 0 -20.2 0zM1158.75 658.66 a10.1 10.1 0 1 0 20.2 0 a10.1 10.1 0 1 0 -20.2 0zM1158.75 557.66 a10.1 10.1 0 1 0 20.2 0 a10.1 10.1 0 1 0 -20.2 0zM1421.17 709.16 a10.1 10.1 0 1 0 20.2 0 a10.1 10.1 0 1 0 -20.2 0zM1421.17 810.16 a10.1 10.1 0 1 0 20.2 0 a10.1 10.1 0 1 0 -20.2 0zM1333.7 860.66 a10.1 10.1 0 1 0 20.2 0 a10.1 10.1 0 1 0 -20.2 0zM1246.22 810.16 a10.1 10.1 0 1 0 20.2 0 a10.1 10.1 0 1 0 -20.2 0zM1508.64 658.66 a10.1 10.1 0 1 0 20.2 0 a10.1 10.1 0 1 0 -20.2 0zM1596.11 709.16 a10.1 10.1 0 1 0 20.2 0 a10.1 10.1 0 1 0 -20.2 0zM1596.11 810.16 a10.1 10.1 0 1 0 20.2 0 a10.1 10.1 0 1 0 -20.2 0zM1508.64 860.66 a10.1 10.1 0 1 0 20.2 0 a10.1 10.1 0 1 0 -20.2 0zM1508.64 961.66 a10.1 10.1 0 1 0 20.2 0 a10.1 10.1 0 1 0 -20.2 0zM1596.11 1012.16 a10.1 10.1 0 1 0 20.2 0 a10.1 10.1 0 1 0 -20.2 0zM1596.11 1113.16 a10.1 10.1 0 1 0 20.2 0 a10.1 10.1 0 1 0 -20.2 0zM1508.64 1163.66 a10.1 10.1 0 1 0 20.2 0 a10.1 10.1 0 1 0 -20.2 0zM1421.17 1113.16 a10.1 10.1 0 1 0 20.2 0 a10.1 10.1 0 1 0 -20.2 0zM1421.17 1012.16 a10.1 10.1 0 1 0 20.2 0 a10.1 10.1 0 1 0 -20.2 0zM1683.58 860.66 a10.1 10.1 0 1 0 20.2 0 a10.1 10.1 0 1 0 -20.2 0zM1683.58 961.66 a10.1 10.1 0 1 0 20.2 0 a10.1 10.1 0 1 0 -20.2 0zM1858.52 658.66 a10.1 10.1 0 1 0 20.2 0 a10.1 10.1 0 1 0 -20.2 0zM1945.99 709.16 a10.1 10.1 0 1 0 20.2 0 a10.1 10.1 0 1 0 -20.2 0zM1945.99 810.16 a10.1 10.1 0 1 0 20.2 0 a10.1 10.1 0 1 0 -20.2 0zM1858.52 860.66 a10.1 10.1 0 1 0 20.2 0 a10.1 10.1 0 1 0 -20.2 0zM1771.05 810.16 a10.1 10.1 0 1 0 20.2 0 a10.1 10.1 0 1 0 -20.2 0zM1771.05 709.16 a10.1 10.1 0 1 0 20.2 0 a10.1 10.1 0 1 0 -20.2 0zM2033.46 355.66 a10.1 10.1 0 1 0 20.2 0 a10.1 10.1 0 1 0 -20.2 0zM2120.94 406.16 a10.1 10.1 0 1 0 20.2 0 a10.1 10.1 0 1 0 -20.2 0zM2120.94 507.16 a10.1 10.1 0 1 0 20.2 0 a10.1 10.1 0 1 0 -20.2 0zM2033.46 557.66 a10.1 10.1 0 1 0 20.2 0 a10.1 10.1 0 1 0 -20.2 0zM1945.99 507.16 a10.1 10.1 0 1 0 20.2 0 a10.1 10.1 0 1 0 -20.2 0zM1945.99 406.16 a10.1 10.1 0 1 0 20.2 0 a10.1 10.1 0 1 0 -20.2 0zM2033.46 658.66 a10.1 10.1 0 1 0 20.2 0 a10.1 10.1 0 1 0 -20.2 0zM2120.94 709.16 a10.1 10.1 0 1 0 20.2 0 a10.1 10.1 0 1 0 -20.2 0zM2120.94 810.16 a10.1 10.1 0 1 0 20.2 0 a10.1 10.1 0 1 0 -20.2 0zM2033.46 860.66 a10.1 10.1 0 1 0 20.2 0 a10.1 10.1 0 1 0 -20.2 0z" fill="rgba(166, 166, 166, 1)"></path><path d="M99.44 -4.1L191.24 48.9L191.24 154.9L99.44 207.9L7.64 154.9L7.64 48.9zM99.44 313.9L191.24 366.9L191.24 472.9L99.44 525.9L7.64 472.9L7.64 366.9zM191.24 790.9L283.04 843.9L283.04 949.9L191.24 1002.9L99.44 949.9L99.44 843.9zM99.44 949.9L191.24 1002.9L191.24 1108.9L99.44 1161.9L7.64 1108.9L7.64 1002.9zM191.24 1108.9L283.04 1161.9L283.04 1267.9L191.24 1320.9L99.44 1267.9L99.44 1161.9zM374.84 154.9L466.65 207.9L466.65 313.9L374.84 366.9L283.04 313.9L283.04 207.9zM283.04 949.9L374.84 1002.9L374.84 1108.9L283.04 1161.9L191.24 1108.9L191.24 1002.9zM558.45 472.9L650.25 525.9L650.25 631.9L558.45 684.9L466.65 631.9L466.65 525.9zM466.65 631.9L558.45 684.9L558.45 790.9L466.65 843.9L374.84 790.9L374.84 684.9zM558.45 1108.9L650.25 1161.9L650.25 1267.9L558.45 1320.9L466.65 1267.9L466.65 1161.9zM742.05 154.9L833.85 207.9L833.85 313.9L742.05 366.9L650.25 313.9L650.25 207.9zM742.05 790.9L833.85 843.9L833.85 949.9L742.05 1002.9L650.25 949.9L650.25 843.9zM742.05 1108.9L833.85 1161.9L833.85 1267.9L742.05 1320.9L650.25 1267.9L650.25 1161.9zM833.85 -4.1L925.65 48.9L925.65 154.9L833.85 207.9L742.05 154.9L742.05 48.9zM833.85 313.9L925.65 366.9L925.65 472.9L833.85 525.9L742.05 472.9L742.05 366.9zM925.65 472.9L1017.45 525.9L1017.45 631.9L925.65 684.9L833.85 631.9L833.85 525.9zM833.85 631.9L925.65 684.9L925.65 790.9L833.85 843.9L742.05 790.9L742.05 684.9zM925.65 790.9L1017.45 843.9L1017.45 949.9L925.65 1002.9L833.85 949.9L833.85 843.9zM1017.45 -4.1L1109.25 48.9L1109.25 154.9L1017.45 207.9L925.65 154.9L925.65 48.9zM1109.25 154.9L1201.06 207.9L1201.06 313.9L1109.25 366.9L1017.45 313.9L1017.45 207.9zM1017.45 313.9L1109.25 366.9L1109.25 472.9L1017.45 525.9L925.65 472.9L925.65 366.9zM1109.25 472.9L1201.06 525.9L1201.06 631.9L1109.25 684.9L1017.45 631.9L1017.45 525.9zM1109.25 1108.9L1201.06 1161.9L1201.06 1267.9L1109.25 1320.9L1017.45 1267.9L1017.45 1161.9zM1201.06 -4.1L1292.86 48.9L1292.86 154.9L1201.06 207.9L1109.25 154.9L1109.25 48.9zM1201.06 313.9L1292.86 366.9L1292.86 472.9L1201.06 525.9L1109.25 472.9L1109.25 366.9zM1201.06 631.9L1292.86 684.9L1292.86 790.9L1201.06 843.9L1109.25 790.9L1109.25 684.9zM1201.06 949.9L1292.86 1002.9L1292.86 1108.9L1201.06 1161.9L1109.25 1108.9L1109.25 1002.9zM1476.46 154.9L1568.26 207.9L1568.26 313.9L1476.46 366.9L1384.66 313.9L1384.66 207.9zM1476.46 472.9L1568.26 525.9L1568.26 631.9L1476.46 684.9L1384.66 631.9L1384.66 525.9zM1476.46 790.9L1568.26 843.9L1568.26 949.9L1476.46 1002.9L1384.66 949.9L1384.66 843.9zM1476.46 1108.9L1568.26 1161.9L1568.26 1267.9L1476.46 1320.9L1384.66 1267.9L1384.66 1161.9zM1568.26 313.9L1660.06 366.9L1660.06 472.9L1568.26 525.9L1476.46 472.9L1476.46 366.9zM1660.06 472.9L1751.86 525.9L1751.86 631.9L1660.06 684.9L1568.26 631.9L1568.26 525.9zM1568.26 631.9L1660.06 684.9L1660.06 790.9L1568.26 843.9L1476.46 790.9L1476.46 684.9zM1660.06 790.9L1751.86 843.9L1751.86 949.9L1660.06 1002.9L1568.26 949.9L1568.26 843.9zM1660.06 1108.9L1751.86 1161.9L1751.86 1267.9L1660.06 1320.9L1568.26 1267.9L1568.26 1161.9zM1751.86 -4.1L1843.66 48.9L1843.66 154.9L1751.86 207.9L1660.06 154.9L1660.06 48.9zM1843.66 154.9L1935.47 207.9L1935.47 313.9L1843.66 366.9L1751.86 313.9L1751.86 207.9zM1751.86 631.9L1843.66 684.9L1843.66 790.9L1751.86 843.9L1660.06 790.9L1660.06 684.9zM1751.86 949.9L1843.66 1002.9L1843.66 1108.9L1751.86 1161.9L1660.06 1108.9L1660.06 1002.9zM1843.66 1108.9L1935.47 1161.9L1935.47 1267.9L1843.66 1320.9L1751.86 1267.9L1751.86 1161.9zM1935.47 -4.1L2027.27 48.9L2027.27 154.9L1935.47 207.9L1843.66 154.9L1843.66 48.9zM2027.27 472.9L2119.07 525.9L2119.07 631.9L2027.27 684.9L1935.47 631.9L1935.47 525.9zM1935.47 631.9L2027.27 684.9L2027.27 790.9L1935.47 843.9L1843.66 790.9L1843.66 684.9z" stroke="rgba(255, 255, 255, 0.93)" stroke-width="2"></path></g><defs><mask id="SvgjsMask1134"><rect width="1980" height="1080" fill="#ffffff"></rect></mask></defs></svg>